<?xml version="1.0" encoding="UTF-8"?><svg id="Layer_1" xmlns="http://www.w3.org/2000/svg" viewBox="0 0 1172.42 1081.29"><defs><style>.cls-1{fill:#5dc6cc;}.cls-1,.cls-2{stroke-width:0px;}.cls-3{font-size:351.15px;}.cls-3,.cls-4{fill:#fff;font-family:Gotham-Medium, Gotham;font-weight:500;}.cls-2{fill:#21409a;}.cls-4{font-size:109.94px;}</style></defs><path class="cls-1" d="M938.75,1044.32c-32.53-41.18-64.35-81.45-96.16-121.72-28.44-36.02-57.84-71.33-85.02-108.27-24.51-33.31-43.1-70.23-48.96-111.74-13.1-92.87,19.09-167.73,93.07-224.64,11.62-8.94,25.09-15.55,38.08-22.55,2.53-1.37,7.66-.75,10.13,1,56.75,40.35,120.75,40.32,177.84-.07,2.46-1.74,7.52-2.23,10.16-.9,77.98,39.11,122.99,101.72,133.08,188.68,6.38,54.97-8.65,105.32-38.6,150.4-24.66,37.12-52.97,71.88-80.4,107.1-35.63,45.75-71.99,90.93-108.04,136.35-1.48,1.86-3,3.69-5.18,6.37Z"/><path class="cls-1" d="M816.34,340.65c-.05-67.95,54.78-122.56,122.79-122.31,67.88.25,121.86,54.4,121.81,122.18-.04,68.04-54.88,122.88-122.59,122.58-67.38-.29-121.97-55.07-122.02-122.45Z"/><path class="cls-1" d="M232.99,1044.32c-32.53-41.18-64.35-81.45-96.16-121.72-28.44-36.02-57.84-71.33-85.02-108.27-24.51-33.31-43.1-70.23-48.96-111.74-13.1-92.87,19.09-167.73,93.07-224.64,11.62-8.94,25.09-15.55,38.08-22.55,2.53-1.37,7.66-.75,10.13,1,56.75,40.35,120.75,40.32,177.84-.07,2.46-1.74,7.52-2.23,10.16-.9,77.98,39.11,122.99,101.72,133.08,188.68,6.38,54.97-8.65,105.32-38.6,150.4-24.66,37.12-52.97,71.88-80.4,107.1-35.63,45.75-71.99,90.93-108.04,136.35-1.48,1.86-3,3.69-5.18,6.37Z"/><path class="cls-1" d="M110.57,340.65c-.05-67.95,54.78-122.56,122.79-122.31,67.88.25,121.86,54.4,121.81,122.18-.04,68.04-54.88,122.88-122.59,122.58-67.38-.29-121.97-55.07-122.02-122.45Z"/><path class="cls-2" d="M582.93,1081.29c-42.59-53.91-84.24-106.62-125.88-159.34-37.23-47.15-75.71-93.38-111.3-141.74-32.09-43.61-56.42-91.94-64.09-146.28-17.15-121.58,24.99-219.57,121.83-294.07,15.21-11.7,32.85-20.35,49.85-29.51,3.32-1.79,10.02-.99,13.25,1.31,74.29,52.82,158.08,52.78,232.81-.1,3.21-2.27,9.84-2.92,13.3-1.18,102.08,51.19,161,133.16,174.21,247,8.35,71.96-11.33,137.87-50.53,196.88-32.29,48.6-69.34,94.09-105.26,140.21-46.64,59.89-94.24,119.04-141.43,178.5-1.93,2.44-3.92,4.83-6.78,8.33Z"/><path class="cls-2" d="M422.68,160.11C422.61,71.16,494.39-.33,583.42,0c88.86.33,159.52,71.21,159.47,159.94-.06,89.07-71.84,160.86-160.48,160.47-88.21-.38-159.66-72.09-159.73-160.3Z"/><text class="cls-4" transform="translate(110.57 747.37) scale(1.12 1)"><tspan x="0" y="0">HR</tspan></text><text class="cls-4" transform="translate(914.09 750.59) scale(1.12 1)"><tspan x="0" y="0">S</tspan></text><text class="cls-3" transform="translate(413.38 787.34) scale(1.12 1)"><tspan x="0" y="0">M</tspan></text></svg>